<?xml version="1.0" standalone="no"?>
<!DOCTYPE svg PUBLIC "-//W3C//DTD SVG 20010904//EN"
 "http://www.w3.org/TR/2001/REC-SVG-20010904/DTD/svg10.dtd">
<svg version="1.0" xmlns="http://www.w3.org/2000/svg"
 width="50px" height="50px" viewBox="0 0 86.000000 116.000000"
 preserveAspectRatio="xMidYMid meet">

<g transform="translate(0.000000,116.000000) scale(0.100000,-0.100000)"
fill="#000000" stroke="none">
<path d="M420 1080 l0 -80 -205 0 -205 0 0 -420 0 -420 205 0 205 0 0 -80 c0
-47 4 -80 10 -80 6 0 10 33 10 80 l0 80 205 0 205 0 0 420 0 420 -205 0 -205
0 0 80 c0 47 -4 80 -10 80 -6 0 -10 -33 -10 -80z m410 -500 l0 -400 -400 0
-400 0 0 400 0 400 400 0 400 0 0 -400z"/>
<path d="M290 556 l0 -206 78 0 c96 1 160 15 191 43 87 80 80 274 -12 341 -24
18 -46 22 -143 24 l-114 4 0 -206z m241 123 c66 -71 47 -226 -32 -266 -13 -7
-54 -13 -91 -13 l-68 0 0 155 0 155 81 0 c77 0 82 -1 110 -31z"/>
</g>
</svg>
