<?xml version="1.0" standalone="no"?>
<!DOCTYPE svg PUBLIC "-//W3C//DTD SVG 20010904//EN"
 "http://www.w3.org/TR/2001/REC-SVG-20010904/DTD/svg10.dtd">
<svg version="1.0" xmlns="http://www.w3.org/2000/svg"
 width="24.000000pt" height="50.000000pt" viewBox="0 0 24.000000 50.000000"
 preserveAspectRatio="xMidYMid meet">

<g transform="translate(0.000000,50.000000) scale(0.100000,-0.100000)"
fill="#000000" stroke="none">
<path d="M21 468 c33 -62 84 -128 98 -128 9 0 30 22 47 48 74 114 69 102 46
102 -15 0 -31 -17 -54 -55 -18 -30 -35 -55 -38 -55 -3 0 -21 25 -39 55 -22 36
-40 55 -53 55 -16 0 -17 -3 -7 -22z"/>
<path d="M10 385 c0 -3 22 -40 50 -82 l50 -76 0 -108 c0 -66 4 -109 10 -109 6
0 10 43 10 110 l0 111 50 74 c28 41 50 77 50 80 0 3 -8 5 -18 5 -11 0 -31 -21
-51 -55 -19 -31 -38 -54 -42 -53 -5 2 -24 25 -41 53 -18 27 -41 51 -51 53 -9
2 -17 1 -17 -3z"/>
</g>
</svg>
