<?xml version="1.0" standalone="no"?>
<!DOCTYPE svg PUBLIC "-//W3C//DTD SVG 20010904//EN"
 "http://www.w3.org/TR/2001/REC-SVG-20010904/DTD/svg10.dtd">
<svg version="1.0" xmlns="http://www.w3.org/2000/svg"
  width="50px" height="50px" viewBox="0 0 82.000000 83.000000"
 preserveAspectRatio="xMidYMid meet">

<g transform="translate(0.000000,83.000000) scale(0.100000,-0.100000)"
fill="#000000" stroke="none">
<path d="M295 807 c-116 -39 -199 -110 -247 -212 -98 -211 -13 -448 196 -546
241 -113 524 41 568 307 29 171 -67 352 -227 429 -51 24 -75 29 -155 32 -60 2
-110 -2 -135 -10z m181 -8 c127 -23 250 -122 295 -237 18 -44 23 -77 24 -147
0 -80 -4 -97 -32 -157 -40 -85 -106 -151 -191 -191 -61 -29 -76 -32 -162 -32
-86 0 -101 3 -160 31 -160 77 -253 252 -220 417 36 185 173 303 376 326 6 0
37 -4 70 -10z"/>
<path d="M493 536 c-85 -39 -94 -182 -14 -229 37 -21 103 -22 147 -1 32 15 34
19 34 65 l0 49 -55 0 c-42 0 -55 -3 -55 -15 0 -11 11 -15 40 -15 36 0 40 -3
40 -25 0 -30 -30 -48 -84 -48 -56 0 -86 36 -86 104 0 40 5 55 25 74 33 34 87
34 121 0 14 -14 29 -25 34 -25 18 0 10 26 -14 49 -30 28 -91 36 -133 17z"/>
<path d="M223 438 c-58 -148 -58 -150 -37 -146 9 1 23 19 29 38 11 34 14 35
68 38 l56 3 12 -41 c9 -28 18 -40 31 -40 10 0 18 1 18 3 0 2 -22 57 -48 123
-65 160 -75 162 -129 22z m96 -35 c1 -9 -13 -13 -39 -13 -44 0 -46 3 -26 51 7
19 16 43 21 54 6 17 10 12 25 -30 10 -27 19 -56 19 -62z"/>
</g>
</svg>
