<?xml version="1.0" standalone="no"?>
<!DOCTYPE svg PUBLIC "-//W3C//DTD SVG 20010904//EN"
 "http://www.w3.org/TR/2001/REC-SVG-20010904/DTD/svg10.dtd">
<svg version="1.0" xmlns="http://www.w3.org/2000/svg"
 width="50px" height="50px"  viewBox="0 0 85.000000 101.000000"
 preserveAspectRatio="xMidYMid meet">

<g transform="translate(0.000000,101.000000) scale(0.100000,-0.100000)"
fill="#000000" stroke="none">
<path d="M420 925 l0 -75 -205 0 -205 0 0 -420 0 -420 420 0 420 0 0 420 0
420 -205 0 -205 0 0 75 c0 43 -4 75 -10 75 -6 0 -10 -32 -10 -75z m410 -500
l0 -405 -402 2 -403 3 -3 403 -2 402 405 0 405 0 0 -405z"/>
<path d="M264 672 c-38 -6 -69 -49 -69 -96 0 -56 26 -93 70 -102 37 -7 81 13
92 42 9 25 -7 30 -25 7 -28 -35 -58 -38 -87 -9 -29 29 -33 80 -9 114 21 30 79
31 95 1 8 -15 14 -18 22 -10 7 7 6 16 -7 30 -18 20 -48 28 -82 23z"/>
<path d="M405 600 c-16 -17 -16 -20 -2 -20 9 0 19 5 22 10 3 6 17 10 31 10 13
0 24 -4 24 -10 0 -5 0 -13 1 -17 0 -4 -19 -12 -43 -18 -36 -8 -44 -14 -46 -37
-4 -33 27 -53 66 -42 15 4 34 6 42 5 12 -1 14 10 12 56 -2 32 -9 64 -14 71
-16 19 -73 15 -93 -8z m85 -69 c0 -14 -29 -41 -44 -41 -22 0 -37 25 -24 38 14
14 68 16 68 3z"/>
<path d="M550 550 c0 -40 4 -70 10 -70 6 0 10 18 10 41 0 49 16 83 36 75 8 -3
14 1 14 9 0 18 -36 20 -43 3 -4 -10 -6 -10 -6 0 -1 6 -5 12 -11 12 -6 0 -10
-30 -10 -70z"/>
<path d="M630 490 c0 -5 7 -10 15 -10 8 0 15 5 15 10 0 6 -7 10 -15 10 -8 0
-15 -4 -15 -10z"/>
<path d="M204 361 c-51 -22 -69 -93 -39 -150 17 -34 33 -41 88 -41 56 1 77 18
77 64 0 35 -1 36 -40 36 -22 0 -40 -4 -40 -10 0 -5 11 -10 25 -10 20 0 25 -5
25 -24 0 -26 -16 -36 -59 -36 -73 0 -89 122 -20 150 27 12 34 10 60 -9 37 -28
57 -23 32 7 -20 25 -76 37 -109 23z"/>
<path d="M377 292 c-23 -25 -22 -85 1 -105 25 -23 75 -21 97 3 16 17 16 20 2
20 -9 0 -19 -4 -22 -10 -11 -18 -54 -11 -65 10 -10 19 -8 20 45 20 61 0 70 14
39 58 -19 28 -74 30 -97 4z m81 -24 c3 -15 -4 -18 -32 -18 -34 0 -47 15 -29
34 13 13 58 1 61 -16z"/>
<path d="M520 239 c0 -80 17 -94 22 -18 3 55 21 78 52 66 12 -5 16 -20 16 -62
0 -32 4 -55 10 -55 7 0 10 25 8 68 l-3 67 -52 1 -53 2 0 -69z"/>
<path d="M680 186 c0 -9 7 -16 16 -16 17 0 14 22 -4 28 -7 2 -12 -3 -12 -12z"/>
</g>
</svg>
