<?xml version="1.0" standalone="no"?>
<!DOCTYPE svg PUBLIC "-//W3C//DTD SVG 20010904//EN"
 "http://www.w3.org/TR/2001/REC-SVG-20010904/DTD/svg10.dtd">
<svg version="1.0" xmlns="http://www.w3.org/2000/svg"
 width="50px" height="50px" viewBox="0 0 20.000000 65.000000"
 preserveAspectRatio="xMidYMid meet">

<g transform="translate(0.000000,65.000000) scale(0.100000,-0.100000)"
fill="#000000" stroke="none">
<path d="M150 530 c0 -119 0 -120 -23 -120 -13 0 -29 6 -35 12 -10 10 -15 10
-21 -1 -6 -9 -18 -11 -35 -7 -15 4 -26 2 -26 -4 0 -5 14 -10 30 -10 37 0 40
-7 75 -147 15 -60 25 -130 25 -172 0 -41 4 -71 10 -71 20 0 10 131 -20 250
-17 65 -30 123 -30 128 0 5 20 7 45 4 30 -3 45 -1 45 7 0 6 -4 11 -10 11 -6 0
-10 47 -10 120 0 73 -4 120 -10 120 -6 0 -10 -47 -10 -120z"/>
</g>
</svg>
