<?xml version="1.0" standalone="no"?>
<!DOCTYPE svg PUBLIC "-//W3C//DTD SVG 20010904//EN"
 "http://www.w3.org/TR/2001/REC-SVG-20010904/DTD/svg10.dtd">
<svg version="1.0" xmlns="http://www.w3.org/2000/svg"
 width="82.000000pt" height="113.000000pt" viewBox="0 0 82.000000 113.000000"
 preserveAspectRatio="xMidYMid meet">

<g transform="translate(0.000000,113.000000) scale(0.100000,-0.100000)"
fill="#000000" stroke="none">
<path d="M282 1101 c-119 -41 -217 -141 -257 -262 -14 -41 -16 -70 -10 -148 3
-53 5 -116 4 -141 -1 -25 -3 -90 -3 -145 -1 -93 1 -105 31 -167 76 -161 245
-251 425 -226 165 22 303 152 337 316 15 71 14 117 -3 182 -13 48 -12 62 1
115 39 152 -30 334 -162 425 -100 69 -250 90 -363 51z m188 -2 c126 -20 243
-109 298 -227 23 -49 27 -70 27 -154 0 -109 -13 -140 -38 -92 -27 51 -110 122
-182 156 -63 29 -79 32 -160 32 -69 0 -103 -5 -148 -23 -74 -29 -148 -88 -191
-152 l-34 -51 -6 29 c-16 80 -17 104 -7 158 31 168 158 298 319 325 26 4 49 8
52 9 3 0 34 -4 70 -10z m103 -336 c74 -35 145 -100 177 -163 l22 -43 -39 -56
c-109 -158 -315 -215 -484 -133 -35 17 -76 42 -91 55 -43 40 -98 117 -98 138
0 47 100 158 179 198 61 31 108 40 192 37 60 -2 89 -9 142 -33z m-454 -326
c28 -30 72 -61 120 -85 70 -34 81 -37 165 -37 148 0 251 51 337 165 48 64 54
55 54 -75 0 -82 -3 -97 -33 -157 -79 -161 -254 -252 -419 -218 -226 47 -356
251 -306 480 l5 25 16 -25 c10 -14 37 -46 61 -73z"/>
</g>
</svg>
